             Fear Dot Com 2002 DVDRip Xvid LKRG

RIPPER                           : fasamoo
Format                           : AVI
Format/Info                      : Audio Video Interleave
File size                        : 700 MiB
Duration                         : 1h 41mn
Overall bit rate                 : 966 Kbps
Writing application              : VirtualDubMod 1.5.4.1 (build 2178/release)
Writing library                  : VirtualDubMod build 2178/release
Language                         : English
Subtitles                        : English(*.srt)
                                   English;French;Spanish(*.idx;*.sub)
Genre                            : Horror

Video
ID                               : 0
Format                           : MPEG-4 Visual
Format profile                   : Advanced Simple@L5
Format settings, BVOP            : Yes
Format settings, QPel            : No
Format settings, GMC             : No warppoints
Format settings, Matrix          : Custom
Codec ID                         : XVID
Codec ID/Hint                    : XviD
Duration                         : 1h 41mn
Bit rate                         : 837 Kbps
Width                            : 640 pixels
Height                           : 272 pixels
Display aspect ratio             : 2.35:1
Frame rate                       : 23.976 fps
Color space                      : YUV
Chroma subsampling               : 4:2:0
Bit depth                        : 8 bits
Scan type                        : Progressive
Bits/(Pixel*Frame)               : 0.201
Stream size                      : 607 MiB (87%)
Writing library                  : XviD 1.2.1 (UTC 2008-12-04)

Audio
ID                               : 1
Format                           : MPEG Audio
Format version                   : Version 1
Format profile                   : Layer 3
Mode                             : Joint stereo
Mode extension                   : MS Stereo
Codec ID                         : 55
Codec ID/Hint                    : MP3
Duration                         : 1h 41mn
Bit rate mode                    : Constant
Bit rate                         : 32.0 Kbps
Channel(s)                       : 2 channels
Sampling rate                    : 48.0 KHz
Stream size                      : 83.9 MiB (12%)
Alignment                        : Aligned on interleaves
Interleave, duration             : 24 ms (0.58 video frame)
Interleave, preload duration     : 139 ms
Writing library                  : LAME3.98.2

                                 PLOT


Four bodies are found in New York City. Why, why, why? The coincidence? They all died 48 hours after logging on to a site named feardotcom.com. Tough detective Mike Reilly collaborates with Department of Health associate Terry Huston to research these mysterious deaths. The only way to find out though what really happened is to enter the site itself... 
  







                                 IMBD
                     
                    http://www.imdb.com/title/tt0295254/
 
http://leetleech.org/images/01616438127105040857.png 
http://leetleech.org/images/95513978675418215678.png 
http://leetleech.org/images/23246144835757567154.png 
http://leetleech.org/images/80744502289417275721.png 
http://leetleech.org/images/95639848126914780610.png
